<svg xmlns="http://www.w3.org/2000/svg" width="32" height="32" viewBox="0 0 100 100" fill="none">
  <path d="M50 10 C25 10, 10 30, 10 50 C10 70, 25 90, 50 90 C75 90, 90 70, 90 50 C90 30, 75 10, 50 10 Z M50 25 C65 25, 75 35, 75 50 C75 65, 65 75, 50 75 C35 75, 25 65, 25 50 C25 35, 35 25, 50 25 Z" stroke="#FFFFFF" stroke-width="6" stroke-linecap="round"/>
  <path d="M38 50 C38 30, 30 18, 50 18 C70 18, 62 30, 62 50" stroke="#FFFFFF" stroke-width="7" stroke-linecap="round"/>
  <path d="M62 50 C62 70, 70 82, 50 82 C30 82, 38 70, 38 50" stroke="#FFFFFF" stroke-width="7" stroke-linecap="round"/>
  <path d="M44 44 C48 52, 52 58, 56 56" stroke="#00BF63" stroke-width="7" stroke-linecap="round"/>
  <path d="M56 44 C52 48, 48 52, 44 56" stroke="#FFFFFF" stroke-width="7" stroke-linecap="round"/>
  <rect x="72" y="14" width="6" height="6" rx="1" fill="#00BF63" transform="rotate(45, 75, 17)"/>
</svg>
