<svg xmlns="http://www.w3.org/2000/svg" viewBox="0 0 200 200">
  <!-- Layer 1: Blue ribbon (full path) -->
  <path d="M 48 166 C 54 144, 64 118, 78 100
           C 92 82, 108 60, 130 48
           C 150 37, 168 48, 168 72
           C 168 96, 152 114, 130 106"
        stroke="#2A55B3" stroke-width="18"
        fill="none" stroke-linecap="round"/>

  <!-- Layer 2: Green ribbon (covers blue at lower crossing) -->
  <path d="M 34 76 C 40 90, 54 108, 70 124
           C 86 140, 96 150, 112 146
           C 128 142, 136 124, 140 106
           C 144 88, 142 68, 138 56"
        stroke="#00BF63" stroke-width="18"
        fill="none" stroke-linecap="round"/>

  <!-- Layer 3: Blue arc redraw (over green at upper crossing) -->
  <path d="M 108 60 C 120 48, 136 40, 150 40
           C 164 40, 172 54, 170 74
           C 168 94, 154 110, 136 106"
        stroke="#2A55B3" stroke-width="18"
        fill="none" stroke-linecap="round"/>

  <!-- Green diamond accent -->
  <rect x="155" y="28" width="11" height="11" rx="2"
        transform="rotate(45 160.5 33.5)" fill="#00BF63"/>
</svg>
